<!DOCTYPE svg PUBLIC "-//W3C//DTD SVG 1.1//EN" "http://www.w3.org/Graphics/SVG/1.1/DTD/svg11.dtd">
<!-- Uploaded to: SVG Repo, www.svgrepo.com, Transformed by: SVG Repo Mixer Tools -->
<svg version="1.1" id="Layer_1" xmlns="http://www.w3.org/2000/svg" xmlns:xlink="http://www.w3.org/1999/xlink" viewBox="0 0 512 512" xml:space="preserve" width="800px" height="800px" fill="#000000" stroke="#000000" stroke-width="10.751999999999999">
<g id="SVGRepo_bgCarrier" stroke-width="0"/>
<g id="SVGRepo_tracerCarrier" stroke-linecap="round" stroke-linejoin="round"/>
<g id="SVGRepo_iconCarrier"> <path style="fill:#9BB335;" d="M306.087,141.913h-33.391c0-15.071,4.235-23.541,7.328-29.726c2.371-4.742,3.802-7.603,3.802-14.791 c0-7.19-1.431-10.053-3.803-14.796c-3.092-6.185-7.327-14.657-7.327-29.728s4.235-23.543,7.327-29.728 c2.372-4.744,3.803-7.605,3.803-14.796h33.391c0,15.072-4.235,23.543-7.327,29.728c-2.372,4.743-3.803,7.605-3.803,14.796 s1.431,10.052,3.803,14.796c3.092,6.185,7.327,14.657,7.327,29.728c0,15.071-4.235,23.541-7.328,29.726 C307.518,131.863,306.087,134.725,306.087,141.913z"/> <g> <path style="fill:#FFB833;" d="M228.174,141.913h-33.391c0-15.071,4.235-23.541,7.328-29.726c2.371-4.742,3.802-7.603,3.802-14.791 c0-7.19-1.431-10.053-3.803-14.796c-3.092-6.185-7.327-14.657-7.327-29.728s4.235-23.543,7.327-29.728 c2.372-4.744,3.803-7.605,3.803-14.796h33.391c0,15.072-4.235,23.543-7.327,29.728c-2.372,4.743-3.803,7.605-3.803,14.796 s1.431,10.052,3.803,14.796c3.092,6.185,7.327,14.657,7.327,29.728c0,15.071-4.235,23.541-7.328,29.726 C229.605,131.863,228.174,134.725,228.174,141.913z"/> <polygon style="fill:#FFB833;" points="278.261,292.174 256,180.87 144.696,180.87 144.696,292.174 33.391,292.174 33.391,425.739 166.957,425.739 "/> </g> <polygon style="fill:#FF832F;" points="367.304,292.174 367.304,180.87 256,180.87 256,292.174 144.696,292.174 144.696,425.739 478.609,425.739 478.609,292.174 "/> <rect x="256" y="292.174" style="fill:#FF4F2A;" width="111.304" height="133.565"/> <polygon style="fill:#99EBE6;" points="0,403.478 33.391,503.652 256,503.652 278.261,453.565 256,403.478 "/> <polygon style="fill:#4DDCD3;" points="256,403.478 256,503.652 478.609,503.652 512,403.478 "/> </g>
</svg>