<svg width="25" height="24" viewBox="0 0 25 24" fill="none" xmlns="http://www.w3.org/2000/svg">
<path fill-rule="evenodd" clip-rule="evenodd" d="M15.9385 12.4981C15.9385 10.7613 14.5301 9.35284 12.7932 9.35284C11.0564 9.35284 9.64795 10.7613 9.64795 12.4981C9.64795 14.2349 11.0564 15.6434 12.7932 15.6434C14.5301 15.6434 15.9385 14.2349 15.9385 12.4981Z" stroke="#FB8500" stroke-width="1.5" stroke-linecap="round" stroke-linejoin="round"/>
<path fill-rule="evenodd" clip-rule="evenodd" d="M12.7927 20.2001C20.838 20.2001 21.7959 17.7896 21.7959 12.5664C21.7959 8.90537 21.3117 6.94642 18.2622 6.10431C17.9822 6.01589 17.6717 5.84747 17.4201 5.57063C17.0138 5.12537 16.7169 3.758 15.7359 3.34431C14.7548 2.93168 10.8148 2.95063 9.84955 3.34431C8.88534 3.73905 8.57166 5.12537 8.16534 5.57063C7.91376 5.84747 7.60429 6.01589 7.32323 6.10431C4.27376 6.94642 3.78955 8.90537 3.78955 12.5664C3.78955 17.7896 4.74745 20.2001 12.7927 20.2001Z" stroke="#FB8500" stroke-width="1.5" stroke-linecap="round" stroke-linejoin="round"/>
<path d="M17.7046 9H17.7136" stroke="#FB8500" stroke-width="1.5" stroke-linecap="round" stroke-linejoin="round"/>
</svg>
