<svg width="24" height="24" viewBox="0 0 24 24" fill="none" xmlns="http://www.w3.org/2000/svg">
<path d="M5.69415 6.43046C11.0207 5.09322 17.6428 5.17521 19.1733 6.91799C20.7037 8.66077 20.6721 14.4882 18.8831 16.0872C17.0951 17.6862 9.33015 17.8382 6.87015 16.0872C4.27115 14.2362 5.77915 8.54222 5.69415 5.09322C5.74515 3.16322 3.65015 2.85022 3.65015 2.85022" stroke="#FB8500" stroke-width="1.5" stroke-linecap="round" stroke-linejoin="round"/>
<path d="M14.156 10.7198H16.929" stroke="#FB8500" stroke-width="1.5" stroke-linecap="round" stroke-linejoin="round"/>
<path fill-rule="evenodd" clip-rule="evenodd" d="M7.26399 20.1275C7.56399 20.1275 7.80799 20.3715 7.80799 20.6715C7.80799 20.9725 7.56399 21.2165 7.26399 21.2165C6.96299 21.2165 6.71899 20.9725 6.71899 20.6715C6.71899 20.3715 6.96299 20.1275 7.26399 20.1275Z" fill="#FB8500" stroke="#FB8500" stroke-width="1.5" stroke-linecap="round" stroke-linejoin="round"/>
<path fill-rule="evenodd" clip-rule="evenodd" d="M17.5954 20.1275C17.8964 20.1275 18.1404 20.3715 18.1404 20.6715C18.1404 20.9725 17.8964 21.2165 17.5954 21.2165C17.2954 21.2165 17.0514 20.9725 17.0514 20.6715C17.0514 20.3715 17.2954 20.1275 17.5954 20.1275Z" fill="#FB8500" stroke="#FB8500" stroke-width="1.5" stroke-linecap="round" stroke-linejoin="round"/>
</svg>
