<svg width="40" height="40" viewBox="0 0 40 40" fill="none" xmlns="http://www.w3.org/2000/svg">
<path d="M33.75 0H6.25C2.79822 0 0 2.79822 0 6.25V33.75C0 37.2018 2.79822 40 6.25 40H33.75C37.2018 40 40 37.2018 40 33.75V6.25C40 2.79822 37.2018 0 33.75 0Z" fill="#EA4C89"/>
<path d="M20 10C14.48 10 10 14.48 10 20C10 25.52 14.48 30 20 30C25.5 30 30 25.52 30 20C30 14.48 25.5 10 20 10ZM26.6 14.6C27.8 16.06 28.5 17.9 28.54 19.92C28.26 19.86 25.44 19.3 22.6 19.64C22.54 19.5 22.48 19.34 22.42 19.2C22.24 18.78 22.06 18.36 21.86 17.96C24.98 16.7 26.42 14.84 26.6 14.6ZM20 11.48C22.16 11.48 24.16 12.3 25.66 13.62C25.5 13.84 24.22 15.56 21.18 16.7C19.78 14.12 18.22 12.02 18 11.7C18.64 11.56 19.3 11.48 20 11.48ZM16.36 12.28C16.58 12.58 18.1 14.7 19.52 17.22C15.52 18.28 12 18.26 11.62 18.26C12.2 15.6 13.98 13.4 16.36 12.28ZM11.46 20.02C11.46 19.94 11.46 19.84 11.46 19.76C11.82 19.78 15.98 19.82 20.24 18.54C20.48 19.02 20.72 19.5 20.94 20C20.84 20.04 20.72 20.06 20.6 20.1C16.2 21.52 13.86 25.4 13.66 25.72C12.28 24.2 11.46 22.2 11.46 20.02ZM20 28.54C18.02 28.54 16.2 27.86 14.76 26.74C14.92 26.42 16.64 23.08 21.46 21.4C21.48 21.38 21.5 21.38 21.52 21.38C22.72 24.5 23.22 27.1 23.34 27.86C22.32 28.3 21.18 28.54 20 28.54ZM24.76 27.08C24.68 26.56 24.22 24.06 23.1 21C25.78 20.58 28.12 21.28 28.42 21.36C28.04 23.74 26.68 25.8 24.76 27.08Z" fill="white"/>
</svg>
