<svg width="24" height="24" viewBox="0 0 24 24" fill="none" xmlns="http://www.w3.org/2000/svg">
<path fill-rule="evenodd" clip-rule="evenodd" d="M11.5 9C12.8809 9 14 10.1191 14 11.5C14 12.8809 12.8809 14 11.5 14C10.1191 14 9 12.8809 9 11.5C9 10.1191 10.1191 9 11.5 9Z" stroke="#30334F" stroke-width="1.5" stroke-linecap="round" stroke-linejoin="round"/>
<path fill-rule="evenodd" clip-rule="evenodd" d="M19.668 6.75025C18.9845 5.55799 17.4712 5.15004 16.2885 5.83852C15.2598 6.43613 13.9741 5.68838 13.9741 4.49218C13.9741 3.11619 12.8659 2 11.4998 2C10.1337 2 9.02546 3.11619 9.02546 4.49218C9.02546 5.68838 7.73977 6.43613 6.71199 5.83852C5.52829 5.15004 4.01507 5.55799 3.33153 6.75025C2.64896 7.9425 3.05399 9.46665 4.23769 10.1541C5.26546 10.7527 5.26546 12.2473 4.23769 12.8459C3.05399 13.5343 2.64896 15.0585 3.33153 16.2498C4.01507 17.442 5.52829 17.85 6.71101 17.1625H6.71199C7.73977 16.5639 9.02546 17.3116 9.02546 18.5078C9.02546 19.8838 10.1337 21 11.4998 21C12.8659 21 13.9741 19.8838 13.9741 18.5078C13.9741 17.3116 15.2598 16.5639 16.2885 17.1625C17.4712 17.85 18.9845 17.442 19.668 16.2498C20.3515 15.0585 19.9455 13.5343 18.7628 12.8459H18.7618C17.7341 12.2473 17.7341 10.7527 18.7628 10.1541C19.9455 9.46665 20.3515 7.9425 19.668 6.75025Z" stroke="#30334F" stroke-width="1.5" stroke-linecap="round" stroke-linejoin="round"/>
</svg>
